<svg xmlns="http://www.w3.org/2000/svg" viewBox="0 0 42 42">
  <defs>
    <style>
      .a {
        fill: #ed2d46;
      }

      .b {
        fill: #e27e25;
      }
    </style>
  </defs>
  <g>
    <g>
      <path class="a" d="M18.22042,0h5.85666A29.08578,29.08578,0,0,1,41.23875,8.33c-.99166,1.00333-1.98333,2.00083-2.96916,3.00417a25.42406,25.42406,0,0,0-13.80167-6.9475A24.45832,24.45832,0,0,0,3.73625,11.32833c-.98583-.9975-1.98333-1.995-2.975-2.99833A28.79279,28.79279,0,0,1,18.22042,0Z"/>
      <path class="a" d="M6.45458,14.0525a20.86628,20.86628,0,0,1,16.1875-5.90917,20.04928,20.04928,0,0,1,12.80417,5.95c-.98583,1.05-1.96583,2.1-2.93417,3.16167a16.00588,16.00588,0,0,0-11.5675-4.8825A16.84318,16.84318,0,0,0,9.41792,17.17917C8.40875,16.15833,7.41708,15.11417,6.45458,14.0525Z"/>
      <path class="a" d="M12.20625,19.92083a12.362,12.362,0,0,1,17.58167.035q-1.47,1.46126-2.95167,2.9225A8.51311,8.51311,0,0,0,15.15208,22.89Q13.67334,21.41126,12.20625,19.92083Z"/>
    </g>
    <g>
      <path class="b" d="M0,20.13667a7.14624,7.14624,0,0,1,3.2025.46666c.79333.32667,1.9075.30334,2.32167,1.19584C6.81333,24.22,6.97083,27.09,8.365,29.45833a17.75046,17.75046,0,0,0,5.3375,3.9725c-.79917-2.32166-2.485-4.235-3.17917-6.59166A2.102,2.102,0,0,1,12.565,24.05083c1.54583,1.8375,2.53167,4.08917,4.13583,5.88584,1.33,1.69166,3.41834,3.26666,3.14417,5.67583-.37333,2.31583-1.7325,4.32833-2.77667,6.3875H10.86167c-1.24834-1.07917-.50167-3.0275-1.37084-4.3225C7.49,34.85417,4.66083,32.66667,2.88167,29.68,1.77333,26.90333.945,24.01583,0,21.18083Z"/>
      <path class="b" d="M38.9375,20.55667A22.68456,22.68456,0,0,1,42,19.97333v1.54c-1.0325,2.87-1.75,5.87417-3.03917,8.645C37.16417,32.795,34.69667,34.90667,32.77167,37.45c-.98,1.19583-.63584,2.87-.79917,4.29333a50.5394,50.5394,0,0,1-6.90667.035,20.44212,20.44212,0,0,1-2.345-4.42166,4.8031,4.8031,0,0,1,.9975-5.43667,45.79474,45.79474,0,0,0,5.2325-7.14c.805-1.70333,3.12084.035,2.7125,1.48167-.40833,2.63083-2.45,4.64916-3.24333,7.16916a16.44856,16.44856,0,0,0,5.47167-4.1825c1.28916-2.42666,1.45833-5.3025,2.82333-7.7A7.2804,7.2804,0,0,1,38.9375,20.55667Z"/>
    </g>
  </g>
</svg>
